<svg width="481" height="162" viewBox="0 0 481 162" fill="none" xmlns="http://www.w3.org/2000/svg">
<rect y="0.620117" width="480.615" height="160.62" fill="white"/>
<path d="M328.612 109.394V85.562L310.794 51.6699H321.016L330.168 70.8821C331.239 72.949 332.31 75.2524 333.306 77.4812C334.289 75.3396 335.447 73.0237 336.443 70.8821L345.931 51.6699H355.904L337.85 85.562V109.394H328.612Z" fill="black"/>
<path d="M267.824 109.393V51.6699H290.498C301.38 51.6699 308.801 56.9492 308.801 66.8479C308.801 74.4306 303.273 79.299 297.919 80.8679C304.02 81.9387 307.655 86.6452 307.655 94.1408V109.393H298.504V95.7097C298.504 87.716 295.54 85.0764 287.696 85.0764H276.976V109.406H267.824V109.393ZM276.976 77.2321H288.518C295.615 77.2321 299.4 74.0945 299.4 68.2424C299.4 62.3904 295.603 59.3398 288.518 59.3398H276.976V77.2321Z" fill="black"/>
<path d="M233.571 109.394V59.3398H215.094V51.6699H261.113V59.3398H242.636V109.394H233.559H233.571Z" fill="black"/>
<path d="M171.776 109.393V51.6699H210.126V59.3398H180.928V75.8376H208.719V83.6694H180.928V101.649H211.197V109.406H171.776V109.393Z" fill="black"/>
<path d="M124.512 109.393V51.6699H147.185C158.068 51.6699 165.488 56.9492 165.488 66.8479C165.488 74.4306 159.96 79.299 154.606 80.8679C160.707 81.9387 164.343 86.6452 164.343 94.1408V109.393H155.191V95.7097C155.191 87.716 152.228 85.0764 144.384 85.0764H133.663V109.406H124.512V109.393ZM133.663 77.2321H145.206C152.303 77.2321 156.088 74.0945 156.088 68.2424C156.088 62.3904 152.29 59.3398 145.206 59.3398H133.663V77.2321Z" fill="black"/>
<path d="M366.516 69.8045L360.687 60.7373L354.858 69.8045" fill="black"/>
<path d="M383.649 64.9012C383.649 61.6534 381.169 59.6216 376.914 59.6216H369.538V78.2443H373.346V71.0608H376.274C378.561 71.0608 379.393 71.8928 379.393 74.1166V78.2443H383.265V73.7966C383.265 71.2528 382.113 69.9889 380.145 69.4769C382.305 68.773 383.649 67.0611 383.649 64.9012ZM376.594 67.829H373.346V62.9334H376.658C378.753 62.9334 379.841 63.7653 379.841 65.2852C379.841 67.0611 378.625 67.829 376.594 67.829Z" fill="black"/>
<path d="M376.082 51.6699C370.37 51.6699 365.283 54.5177 362.115 58.8534L364.291 62.5172C366.579 58.2455 370.978 55.3657 376.082 55.3657C383.586 55.3657 389.553 61.4613 389.553 69.1567C389.553 76.8522 383.586 82.9478 376.21 82.9478C368.835 82.9478 362.611 76.8522 362.611 69.1567C362.611 68.2928 362.691 67.4449 362.851 66.6129H358.947C358.819 67.4449 358.739 68.2928 358.739 69.1567C358.739 78.6921 366.563 86.6436 375.97 86.6436C385.377 86.6436 393.457 78.8841 393.457 69.1567C393.457 59.4294 385.633 51.6699 376.098 51.6699H376.082Z" fill="black"/>
</svg>
