<svg width="1324" height="489" viewBox="0 0 1324 489" fill="none" xmlns="http://www.w3.org/2000/svg">
<path d="M1264.31 429.673H1265.31V428.673V379.837V378.837H1264.31H1211.74H1205.77C1186.41 378.837 1168.49 374.178 1152.01 364.862C1135.52 355.182 1122.44 342.102 1112.76 325.611C1103.08 309.129 1098.25 291.036 1098.25 271.312V109.525H1155.93V320.148V321.148H1156.93H1264.31H1265.31V320.148V109.525H1323V379.837C1323 399.561 1318.16 417.654 1308.49 434.136C1298.81 450.626 1285.73 463.522 1269.25 472.84L1269.24 472.844L1269.23 472.848C1252.75 482.524 1234.83 487.361 1215.48 487.361H1098.25V429.673H1264.31Z" stroke="white" stroke-width="2"/>
<path d="M993.378 124.039L993.386 124.043C1010.23 133.722 1023.49 146.98 1033.17 163.828L1033.18 163.836C1042.69 180.04 1047.52 197.799 1047.68 217.135H990V168.214V167.214H989H883.623H882.623V168.214V378.837H824.935V218.135C824.935 198.411 829.774 180.319 839.448 163.836L839.448 163.837L839.453 163.828C849.134 146.976 862.213 133.719 878.699 124.041C895.546 114.364 913.822 109.525 933.544 109.525H939.079C958.803 109.525 976.896 114.364 993.378 124.039Z" stroke="white" stroke-width="2"/>
<path d="M631.613 166.874H548.623V110.067H631.613H632.613V109.067L632.613 1H690.302L690.302 109.067V110.067H691.302H773.377V166.874H691.302H690.302V167.874L690.302 320.148V321.148H691.302H773.377V378.836H748.277C727.799 378.836 708.775 374.706 691.192 366.454C673.627 357.849 659.476 345.488 648.724 329.36C637.998 313.271 632.613 293.938 632.613 271.312L632.613 167.874V166.874H631.613Z" stroke="white" stroke-width="2"/>
<path d="M498.066 217.593V276.281H331H330V277.281V320.148V321.148H331H498.066V378.837H380.921C361.201 378.837 342.928 374 326.083 364.325C309.589 354.283 296.507 341.021 286.827 324.53C277.15 307.683 272.311 289.407 272.311 269.684V217.593C272.311 197.869 277.15 179.776 286.825 163.294C296.505 146.802 309.584 133.722 326.076 124.041C342.923 114.364 361.199 109.525 380.921 109.525H389.456C409.18 109.525 427.272 114.364 443.754 124.039L443.762 124.043C460.616 133.725 473.875 146.806 483.552 163.294C493.227 179.776 498.066 197.869 498.066 217.593ZM439.377 218.593H440.377V217.593V168.214V167.214H439.377H331H330V168.214V217.593V218.593H331H439.377Z" stroke="white" stroke-width="2"/>
<path d="M168.443 124.039L168.451 124.043C185.3 133.722 198.557 146.98 208.236 163.828L208.241 163.836C217.751 180.04 222.589 197.799 222.75 217.135H165.066V168.214V167.214H164.066H59.6885H58.6885V168.214V378.837H1V218.135C1 198.411 5.839 180.319 15.5132 163.836L15.5133 163.837L15.5179 163.828C25.1992 146.976 38.2784 133.719 54.7644 124.041C71.6116 114.364 89.8873 109.525 109.61 109.525H114.144C133.868 109.525 151.961 114.364 168.443 124.039Z" stroke="white" stroke-width="2"/>
</svg>
